<?xml version="1.0" standalone="no"?>
<!DOCTYPE svg PUBLIC "-//W3C//DTD SVG 20010904//EN"
 "http://www.w3.org/TR/2001/REC-SVG-20010904/DTD/svg10.dtd">
<svg version="1.0" xmlns="http://www.w3.org/2000/svg"
 width="1710.000000pt" height="418.000000pt" viewBox="0 0 1710.000000 418.000000"
 preserveAspectRatio="xMidYMid meet">
<metadata>
Created by potrace 1.15, written by Peter Selinger 2001-2017
</metadata>
<g transform="translate(0.000000,418.000000) scale(0.100000,-0.100000)"
fill="#000000" stroke="none">
<path d="M3490 3993 c-186 -13 -355 -77 -506 -191 -86 -65 -108 -87 -172 -175
l-43 -58 -43 58 c-131 178 -339 305 -571 350 -98 19 -310 12 -400 -12 -75 -21
-207 -82 -279 -129 -123 -83 -262 -247 -326 -389 -57 -126 -75 -216 -74 -377
0 -127 3 -156 27 -236 83 -285 263 -480 777 -844 228 -162 405 -296 488 -372
169 -154 297 -304 362 -423 18 -33 34 -61 35 -63 2 -2 22 29 46 70 136 234
360 446 798 756 550 389 740 594 829 892 22 74 25 104 25 230 1 122 -3 158
-22 225 -77 268 -249 479 -488 599 -119 59 -326 99 -463 89z"/>
<path d="M9986 2740 c-40 -13 -64 -38 -78 -82 -29 -98 78 -182 172 -133 86 45
73 188 -20 215 -39 11 -35 11 -74 0z"/>
<path d="M16825 2741 c-34 -15 -57 -49 -62 -93 -6 -55 26 -106 80 -127 36 -13
42 -13 83 8 58 28 80 72 64 133 -17 60 -50 88 -102 87 -24 0 -52 -4 -63 -8z"/>
<path d="M464 2612 c3 -73 11 -160 18 -193 11 -54 19 -67 69 -116 142 -138
346 -265 762 -471 158 -78 287 -147 287 -152 0 -7 -6 -7 -17 -1 -10 5 -72 28
-138 50 -375 126 -609 216 -750 288 -166 86 -331 220 -409 333 l-38 55 7 -108
c9 -154 57 -369 106 -482 5 -11 18 -45 29 -75 107 -280 368 -621 635 -831 308
-242 610 -378 1030 -464 189 -38 526 -65 629 -50 l46 7 0 82 c0 135 -45 376
-93 496 -8 19 -20 50 -27 68 -48 127 -155 286 -275 408 -190 194 -429 338
-905 544 -493 213 -740 381 -885 603 -30 47 -55 89 -55 94 0 4 -8 17 -16 28
-15 18 -16 10 -10 -113z"/>
<path d="M5047 2701 c-34 -74 -121 -193 -189 -257 -171 -161 -340 -259 -815
-470 -368 -164 -500 -236 -679 -370 -220 -165 -370 -362 -468 -614 -60 -155
-101 -382 -94 -525 l3 -70 69 -3 c39 -2 153 1 255 7 196 12 381 44 586 102
568 159 1077 561 1344 1060 99 186 175 400 206 579 17 101 31 260 23 260 -3 0
-21 -24 -42 -54 -53 -77 -148 -164 -256 -236 -169 -111 -314 -175 -685 -304
-137 -48 -269 -94 -293 -103 -23 -9 -45 -13 -48 -10 -3 3 115 66 263 140 426
212 599 319 743 456 l80 76 15 144 c17 158 19 231 8 231 -5 0 -16 -18 -26 -39z"/>
<path d="M5875 2410 c-190 -28 -321 -205 -302 -408 12 -128 82 -228 199 -287
l71 -35 222 0 c267 0 304 -4 346 -39 26 -22 32 -36 37 -80 6 -64 -13 -108 -58
-134 -25 -15 -73 -17 -449 -17 l-421 0 0 -120 0 -121 448 3 447 3 66 32 c129
64 196 159 206 297 12 159 -56 299 -174 356 -27 13 -57 28 -68 34 -12 6 -124
13 -285 16 -257 5 -266 6 -298 28 -17 13 -37 32 -42 42 -17 31 -12 102 10 138
37 61 46 62 500 62 l410 0 0 120 0 120 -407 -1 c-225 -1 -431 -5 -458 -9z"/>
<path d="M7380 2413 c-127 -16 -259 -83 -355 -178 -85 -86 -131 -161 -162
-267 -93 -321 87 -661 407 -770 93 -31 288 -32 375 -1 69 24 118 48 158 76 38
26 50 12 46 -52 l-4 -51 118 0 117 0 0 625 0 625 -115 0 -115 0 0 -54 c0 -30
-4 -57 -9 -61 -5 -3 -38 10 -74 30 -35 19 -90 44 -123 54 -60 20 -200 33 -264
24z m192 -254 c164 -56 269 -195 271 -360 1 -151 -81 -282 -221 -351 -223
-110 -494 32 -542 285 -29 157 65 334 217 408 91 44 180 50 275 18z"/>
<path d="M8735 2413 c-50 -5 -157 -38 -211 -63 -126 -61 -257 -243 -298 -415
-14 -57 -17 -133 -19 -418 l-2 -347 118 0 117 0 0 331 c0 407 9 455 105 566
85 100 270 141 412 93 116 -39 160 -77 219 -190 l29 -55 3 -372 3 -373 120 0
120 0 -3 378 c-4 356 -5 381 -26 442 -68 202 -208 345 -389 399 -68 20 -222
33 -298 24z"/>
<path d="M10805 2413 c-54 -5 -159 -40 -218 -72 -189 -102 -327 -333 -327
-547 0 -70 29 -191 61 -260 78 -164 204 -276 380 -336 92 -32 276 -32 368 0
73 25 170 78 221 121 l35 30 -80 81 c-44 44 -83 80 -88 80 -5 0 -28 -14 -53
-31 -152 -104 -353 -86 -487 45 -50 48 -92 120 -83 142 5 12 83 14 485 14
l479 0 7 63 c25 230 -102 471 -311 593 -103 61 -259 91 -389 77z m197 -254
c77 -27 144 -74 184 -131 41 -56 65 -104 57 -112 -4 -3 -165 -6 -360 -6 -393
0 -371 -4 -334 68 20 39 110 130 151 152 99 53 203 63 302 29z"/>
<path d="M12175 2413 c-54 -5 -126 -29 -205 -66 -94 -44 -222 -175 -272 -278
-54 -110 -75 -237 -59 -347 36 -249 197 -445 429 -523 95 -32 278 -33 370 -1
80 27 166 74 217 117 l40 34 -80 81 c-44 44 -83 80 -87 80 -4 0 -27 -14 -52
-30 -138 -93 -295 -91 -441 5 -57 38 -138 145 -133 174 3 14 56 16 485 19
l482 2 7 56 c34 272 -146 550 -419 649 -64 24 -201 37 -282 28z m197 -254 c71
-25 144 -73 180 -121 34 -44 69 -114 61 -122 -11 -11 -713 -7 -713 4 0 26 32
83 72 126 111 121 257 162 400 113z"/>
<path d="M12850 2418 c0 -2 34 -73 76 -158 42 -85 102 -213 134 -285 32 -71
70 -157 85 -190 36 -78 159 -351 243 -538 62 -140 66 -147 78 -124 7 13 137
293 289 623 153 329 285 616 295 637 l18 37 -138 0 -138 0 -15 -42 c-9 -24
-34 -88 -57 -143 -93 -222 -250 -607 -250 -612 0 -2 -6 -3 -14 -3 -7 0 -26 34
-43 78 -17 42 -69 172 -116 287 -47 116 -106 260 -130 320 l-45 110 -136 3
c-75 1 -136 1 -136 0z"/>
<path d="M14565 2414 c-147 -16 -324 -123 -418 -252 -88 -119 -118 -213 -118
-362 0 -179 48 -304 165 -427 80 -85 163 -140 261 -174 60 -21 88 -24 195 -23
141 0 200 16 308 79 33 19 63 35 66 35 3 0 6 -27 6 -60 l0 -60 120 0 120 0 0
625 0 625 -120 0 -120 0 0 -60 c0 -33 -3 -60 -6 -60 -3 0 -34 16 -68 35 -112
62 -262 93 -391 79z m236 -272 c82 -39 158 -113 196 -189 39 -80 45 -201 13
-286 -57 -151 -205 -257 -361 -257 -142 0 -285 93 -351 228 -29 58 -33 76 -33
147 0 61 6 95 24 143 26 69 97 155 156 192 113 70 240 77 356 22z"/>
<path d="M15925 2414 c-100 -10 -250 -73 -307 -128 -91 -89 -160 -199 -199
-321 -21 -66 -23 -91 -27 -432 l-4 -363 120 0 121 0 3 363 c3 330 5 366 23
407 31 72 61 116 109 156 74 62 124 77 251 77 127 0 177 -15 251 -77 53 -45
89 -99 115 -174 17 -50 19 -88 19 -404 l0 -348 121 0 121 0 -4 373 c-4 366 -5
373 -30 448 -68 205 -208 345 -403 403 -52 15 -212 27 -280 20z"/>
<path d="M16760 1795 l0 -625 120 0 120 0 0 625 0 625 -120 0 -120 0 0 -625z"/>
<path d="M9900 1693 c0 -753 -1 -767 -45 -853 -32 -64 -83 -116 -147 -151 -62
-34 -65 -34 -188 -34 -116 0 -129 2 -182 28 -103 50 -160 137 -198 303 -11 47
-20 104 -20 128 0 44 0 44 -102 122 -57 42 -109 82 -117 88 -12 9 -13 -10 -8
-129 4 -77 14 -194 22 -260 14 -101 22 -133 56 -202 68 -142 172 -234 329
-294 59 -22 79 -24 220 -23 142 0 161 3 223 26 96 37 154 74 214 135 89 90
152 220 173 353 6 39 10 345 10 773 l0 707 -120 0 -120 0 0 -717z"/>
</g>
</svg>
